<?xml version="1.0" encoding="utf-8"?>
<!-- Generator: Adobe Illustrator 22.1.0, SVG Export Plug-In . SVG Version: 6.00 Build 0)  -->
<svg version="1.1" id="Layer_1" xmlns="http://www.w3.org/2000/svg" xmlns:xlink="http://www.w3.org/1999/xlink" x="0px" y="0px"
	 viewBox="0 0 343 120.2" style="enable-background:new 0 0 343 120.2;" xml:space="preserve">
<style type="text/css">
	.st0{fill:#FFFFFF;}
	.st1{font-family:'Lato-Light';}
	.st2{font-size:53.4168px;}
</style>
<g>
	<g>
		<g>
			<g>
				<path class="st0" d="M14.9,18.3C17,25.6,21.3,33,28,36.7c0.8,0.4,1.6,0.8,2.6,1.1c2.2-2.6,4.6-4.6,7.3-6.2
					c2.3-1.3,4.7-2.3,7.2-3c-0.6-0.5-1.3-1-2-1.5c-2.7-1.9-5.8-3.6-8.7-5.4c2.8,1.1,6.1,1.8,8.7,3.1c1.7,0.8,3.1,1.9,4.5,3.1
					c4.6-1,9.3-1.2,14-1.2c-3-6.6-10.5-12.6-16.2-15.5c-6-3.1-13.1-4.2-20-5.7c-4.2-0.9-8.7-3.1-11.9-5.3c-0.7-0.5-1.6,0.1-1.5,1
					C13.1,6.7,13.2,12.9,14.9,18.3z"/>
			</g>
			<g>
				<path class="st0" d="M88.9,25.9c-8.4,3.4-17.5,2.9-26.5,2.9c-4.4,0-8.7,0.1-13,0.9c-0.9,0.2-1.8,0.4-2.7,0.6
					C44,31,41.4,32,38.9,33.5c-2.4,1.4-4.4,3.1-6.2,5c-2.8,3.1-4.9,6.8-6.8,10.7c-3.4,7-5.4,14.7-6.1,22.4c-0.3,3.1-0.6,6.4-0.2,9.6
					c0.1,0.7,0.2,1.6,0.6,2.1c0.6,0.7,1.9,0.2,1.7-0.8c-1.2-7,0.9-14.8,4.4-20.9c4-7.1,10.6-10.8,18.3-12.6c2.1-0.5,4.1-0.9,6.3-1.2
					c0,0,0.1,0,0.1,0c0.4,0,0.5,0.7,0.1,0.8c-2.5,0.8-5.1,1.6-7.5,2.6c-11.9,4.6-18.3,17.6-14.1,18.1c0.3,0,0.8,0,1.2-0.1
					c6.8-1.9,14.5-1.1,21.7-1.6c2.6-0.2,5.1-0.5,7.5-1.2c9.5-2.8,16.8-9.4,21.7-17.9c3.6-6.3,5.6-14,8.6-20.7
					c0.4-0.9-0.2-1.7-0.9-1.8C89.3,25.8,89.1,25.8,88.9,25.9z"/>
			</g>
		</g>
	</g>
	<text transform="matrix(1 0 0 1 1.9741 116.6299)" class="st0 st1 st2">ondetemhorta</text>
</g>
</svg>
