<?xml version="1.0" encoding="utf-8"?>
<!-- Generator: Adobe Illustrator 22.1.0, SVG Export Plug-In . SVG Version: 6.00 Build 0)  -->
<svg version="1.1" id="Layer_1" xmlns="http://www.w3.org/2000/svg" xmlns:xlink="http://www.w3.org/1999/xlink" x="0px" y="0px"
	 viewBox="0 0 58 56" style="enable-background:new 0 0 58 56;" xml:space="preserve">
<style type="text/css">
	.st0{fill:url(#SVGID_1_);}
	.st1{fill:url(#SVGID_2_);}
</style>
<g>
	<g>
		<g>
			<g>
				
					<linearGradient id="SVGID_1_" gradientUnits="userSpaceOnUse" x1="38.4787" y1="19.7213" x2="4.7311" y2="0.2372" gradientTransform="matrix(0.9707 -0.2402 0.2402 0.9707 -6.017 7.2484)">
					<stop  offset="0" style="stop-color:#4DC7A6"/>
					<stop  offset="0.2158" style="stop-color:#75D999"/>
					<stop  offset="0.4318" style="stop-color:#96E88E"/>
					<stop  offset="0.6396" style="stop-color:#ADF286"/>
					<stop  offset="0.8336" style="stop-color:#BBF982"/>
					<stop  offset="1" style="stop-color:#C0FB80"/>
				</linearGradient>
				<path class="st0" d="M5,12.6c2.7,4.5,6.8,8.8,11.9,10.2c0.6,0.2,1.2,0.3,1.9,0.3c1-2.1,2.3-3.9,3.9-5.4c1.4-1.3,2.8-2.4,4.3-3.3
					c-0.5-0.3-1-0.5-1.6-0.7c-2.2-0.8-4.5-1.4-6.7-2.2c2.1,0.3,4.4,0.2,6.4,0.6c1.3,0.3,2.4,0.7,3.6,1.3c2.9-1.4,6.1-2.4,9.2-3.2
					c-3.2-4-9.2-6.7-13.5-7.8C19.9,1.6,14.9,2,10,2.2C7,2.2,3.6,1.5,1.1,0.6C0.5,0.3,0,0.9,0.2,1.5C1.9,5,3,9.2,5,12.6z"/>
			</g>
			<g>
				
					<linearGradient id="SVGID_2_" gradientUnits="userSpaceOnUse" x1="49.4802" y1="40.029" x2="20.4333" y2="23.2587" gradientTransform="matrix(0.9707 -0.2402 0.2402 0.9707 -6.017 7.2484)">
					<stop  offset="0" style="stop-color:#4DC7A6"/>
					<stop  offset="0.2158" style="stop-color:#75D999"/>
					<stop  offset="0.4318" style="stop-color:#96E88E"/>
					<stop  offset="0.6396" style="stop-color:#ADF286"/>
					<stop  offset="0.8336" style="stop-color:#BBF982"/>
					<stop  offset="1" style="stop-color:#C0FB80"/>
				</linearGradient>
				<path class="st1" d="M56.3,5.3C51.2,9,45,10.2,38.9,11.7c-3,0.7-5.9,1.6-8.6,2.8c-0.6,0.3-1.2,0.6-1.7,0.9
					c-1.7,0.9-3.3,2-4.8,3.4c-1.4,1.3-2.5,2.8-3.3,4.4c-1.4,2.6-2.2,5.4-2.8,8.3c-1.1,5.3-1.2,10.8-0.3,16.2
					c0.3,2.2,0.7,4.4,1.5,6.5c0.2,0.5,0.4,1,0.8,1.3c0.5,0.4,1.3-0.2,1-0.8c-2-4.5-1.8-10.1-0.5-14.9c1.5-5.4,5.3-9.1,10.3-11.6
					c1.3-0.7,2.7-1.3,4-1.9c0,0,0.1,0,0.1,0c0.3,0,0.5,0.4,0.2,0.5c-1.6,1-3.1,2-4.6,3c-7.2,5.1-9.4,14.9-6.5,14.6
					c0.2,0,0.5-0.1,0.8-0.3c4.3-2.4,9.6-3.2,14.4-4.7c1.7-0.5,3.3-1.2,4.8-2.1c6-3.4,9.8-9.2,11.7-15.7c1.4-4.9,1.5-10.4,2.4-15.4
					c0.1-0.6-0.4-1.1-0.9-1C56.6,5.2,56.4,5.2,56.3,5.3z"/>
			</g>
		</g>
	</g>
</g>
</svg>
